# Blender v2.80 (sub 75) OBJ File: 'Cable_turn.blend'
# www.blender.org
mtllib Cable_turn.mtl
o Cylinder
v -0.000000 0.014806 -0.001281
v -0.000000 -0.020134 0.750000
v 0.144823 -0.061502 0.143542
v 0.159518 -0.086208 0.750000
v 0.204811 -0.245726 0.203530
v 0.225592 -0.245726 0.750000
v 0.144823 -0.429950 0.143542
v 0.159518 -0.405244 0.750000
v -0.000000 -0.506258 -0.001281
v -0.000000 -0.471318 0.750000
v -0.144823 -0.429950 -0.146104
v -0.159518 -0.405244 0.750000
v -0.204811 -0.245726 -0.206092
v -0.225592 -0.245726 0.750000
v -0.144823 -0.061502 -0.146104
v -0.159518 -0.086208 0.750000
v 0.750000 -0.020134 -0.018855
v 0.750000 -0.086208 0.140662
v 0.750000 -0.245726 0.206737
v 0.750001 -0.405244 0.140662
v 0.750000 -0.471318 -0.018855
v 0.750000 -0.405244 -0.178373
v 0.750000 -0.245726 -0.244448
v 0.750000 -0.086208 -0.178373
v 0.078287 -0.005303 0.077006
v 0.086231 -0.037546 0.750000
v -0.000000 -0.002664 0.374360
v 0.152170 -0.073855 0.446771
v 0.189003 -0.146140 0.187722
v 0.208180 -0.159495 0.750000
v 0.215201 -0.245726 0.476765
v 0.189002 -0.345312 0.187722
v 0.208180 -0.331957 0.750000
v 0.152170 -0.417597 0.446771
v 0.078287 -0.486149 0.077006
v 0.086231 -0.453906 0.750000
v -0.000000 -0.488788 0.374360
v -0.078287 -0.486149 -0.079568
v -0.086231 -0.453906 0.750000
v -0.152170 -0.417597 0.301948
v -0.189003 -0.345312 -0.190284
v -0.208180 -0.331957 0.750000
v -0.215202 -0.245726 0.271954
v -0.189003 -0.146140 -0.190284
v -0.208180 -0.159495 0.750000
v -0.152171 -0.073855 0.301948
v -0.078287 -0.005303 -0.079568
v -0.086231 -0.037546 0.750000
v 0.750000 -0.037546 0.067376
v 0.750000 -0.159495 0.189325
v 0.750001 -0.331957 0.189325
v 0.750001 -0.453906 0.067376
v 0.750000 -0.453906 -0.105086
v 0.750000 -0.331957 -0.227035
v 0.750000 -0.159495 -0.227035
v 0.750000 -0.037546 -0.105086
v 0.272595 -0.245726 -0.225270
v 0.302588 -0.417597 -0.162239
v 0.375000 -0.488788 -0.010068
v 0.447412 -0.417597 0.142102
v 0.302588 -0.073855 -0.162239
v 0.477406 -0.245726 0.205133
v 0.447412 -0.073855 0.142102
v 0.375000 -0.002664 -0.010068
v 0.082259 -0.021425 0.413503
v 0.198591 -0.152817 0.468861
v 0.198591 -0.338635 0.468861
v 0.082259 -0.470027 0.413503
v -0.082259 -0.470027 0.335216
v -0.198591 -0.338635 0.279858
v -0.000000 -0.245726 0.750000
v -0.198591 -0.152817 0.279858
v -0.082259 -0.021425 0.335216
v 0.280499 -0.338635 -0.208659
v 0.750000 -0.245726 -0.018855
v 0.414144 -0.470027 0.072191
v 0.280499 -0.152817 -0.208659
v 0.469501 -0.152817 0.188523
v 0.335856 -0.470027 -0.092327
v 0.335856 -0.021425 -0.092327
v 0.414144 -0.021425 0.072191
v 0.469502 -0.338635 0.188523
vt 1.000000 0.750000
vt 0.937500 0.500000
vt 1.000000 0.500000
vt 1.000000 1.000000
vt 0.937500 0.750000
vt 0.937500 1.000000
vt 0.875000 0.750000
vt 0.875000 0.500000
vt 0.812500 0.500000
vt 0.875000 1.000000
vt 0.812500 0.750000
vt 0.812500 1.000000
vt 0.750000 0.750000
vt 0.750000 0.500000
vt 0.687500 0.750000
vt 0.687500 0.500000
vt 0.687500 1.000000
vt 0.625000 1.000000
vt 0.625000 0.750000
vt 0.625000 0.500000
vt 0.562500 0.750000
vt 0.562500 0.500000
vt 0.562500 1.000000
vt 0.500000 1.000000
vt 0.500000 0.750000
vt 0.500000 0.500000
vt 0.437500 0.750000
vt 0.437500 0.500000
vt 0.437500 1.000000
vt 0.375000 1.000000
vt 0.375000 0.750000
vt 0.375000 0.500000
vt 0.312500 0.750000
vt 0.312500 0.500000
vt 0.312500 1.000000
vt 0.250000 1.000000
vt 0.250000 0.750000
vt 0.250000 0.500000
vt 0.419706 0.419706
vt 0.250000 0.250000
vt 0.454853 0.334853
vt 0.250000 0.490000
vt 0.334853 0.454853
vt 0.080294 0.419706
vt 0.165147 0.454853
vt 0.010000 0.250000
vt 0.045147 0.334853
vt 0.080294 0.080294
vt 0.045147 0.165147
vt 0.250000 0.010000
vt 0.165147 0.045147
vt 0.419706 0.080294
vt 0.334853 0.045147
vt 0.490000 0.250000
vt 0.454853 0.165147
vt 0.187500 0.500000
vt 0.187500 0.750000
vt 0.187500 1.000000
vt 0.125000 0.750000
vt 0.125000 0.500000
vt 0.062500 0.500000
vt 0.125000 1.000000
vt 0.062500 0.750000
vt 0.062500 1.000000
vt 0.000000 0.750000
vt 0.000000 0.500000
vt 0.312500 0.500000
vt 0.375000 0.500000
vt 0.250000 0.500000
vt 0.250000 0.500000
vt 0.312500 0.500000
vt 0.375000 0.500000
vt 0.750000 0.490000
vt 0.750000 0.250000
vt 0.665147 0.454853
vt 0.919706 0.419706
vt 0.834853 0.454853
vt 0.990000 0.250000
vt 0.954853 0.334853
vt 0.919706 0.080294
vt 0.954853 0.165147
vt 0.750000 0.010000
vt 0.834853 0.045147
vt 0.580294 0.080294
vt 0.665147 0.045147
vt 0.510000 0.250000
vt 0.545147 0.165147
vt 0.580294 0.419706
vt 0.545147 0.334853
vt 0.562500 0.500000
vt 0.625000 0.500000
vt 0.500000 0.500000
vt 0.500000 0.500000
vt 0.562500 0.500000
vt 0.625000 0.500000
vt 0.187500 0.500000
vt 0.125000 0.500000
vt 0.187500 0.500000
vt 0.875000 0.500000
vt 0.812500 0.500000
vt 0.750000 0.500000
vt 0.812500 0.500000
vt 0.875000 0.500000
vt 0.437500 0.500000
vt 0.437500 0.500000
vt 0.062500 0.500000
vt 0.000000 0.500000
vt 0.062500 0.500000
vt 0.125000 0.500000
vt 1.000000 0.500000
vt 0.937500 0.500000
vt 0.937500 0.500000
vt 1.000000 0.500000
vt 0.687500 0.500000
vt 0.687500 0.500000
vt 0.750000 0.500000
vt 0.750000 1.000000
vt 0.000000 1.000000
vt 0.000000 0.500000
vn 0.2056 0.9776 0.0455
vn 0.2015 0.9784 0.0455
vn 0.5900 0.8068 0.0317
vn 0.6274 0.7781 0.0299
vn 0.8871 0.4616 -0.0027
vn 0.8621 0.5067 -0.0002
vn 0.9844 0.1735 -0.0295
vn 0.9879 0.1520 -0.0301
vn 0.9879 -0.1520 -0.0301
vn 0.9844 -0.1735 -0.0295
vn 0.8621 -0.5067 -0.0002
vn 0.8871 -0.4616 -0.0027
vn 0.6274 -0.7781 0.0299
vn 0.5900 -0.8068 0.0317
vn 0.2015 -0.9784 0.0455
vn 0.2056 -0.9776 0.0455
vn -0.2809 -0.9591 0.0346
vn -0.2382 -0.9706 0.0354
vn -0.6036 -0.7972 0.0121
vn -0.6512 -0.7588 0.0102
vn -0.8840 -0.4674 -0.0114
vn -0.8608 -0.5089 -0.0103
vn -0.9839 -0.1777 -0.0214
vn -0.9869 -0.1601 -0.0215
vn 0.0000 0.0000 1.0000
vn -0.9869 0.1601 -0.0215
vn -0.9839 0.1777 -0.0214
vn -0.8608 0.5089 -0.0103
vn -0.8840 0.4674 -0.0114
vn -0.6512 0.7588 0.0102
vn -0.6036 0.7972 0.0121
vn -0.2382 0.9706 0.0354
vn -0.2809 0.9591 0.0346
vn -0.0169 -0.5102 -0.8599
vn -0.0359 -0.1788 -0.9832
vn -0.0355 -0.1978 -0.9796
vn -0.0148 -0.5531 -0.8330
vn 1.0000 0.0000 0.0000
vn 0.0358 -0.8076 0.5886
vn 0.0498 -0.9786 0.1995
vn 0.0498 -0.9790 0.1977
vn 0.0366 -0.8325 0.5528
vn -0.0396 0.1628 -0.9859
vn -0.0277 0.4739 -0.8801
vn -0.0263 0.5121 -0.8585
vn -0.0395 0.1791 -0.9830
vn 0.0235 0.4722 0.8812
vn 0.0009 0.1569 0.9876
vn 0.0014 0.1761 0.9844
vn 0.0250 0.5118 0.8587
vn 0.0396 -0.9700 -0.2400
vn 0.0124 -0.7971 -0.6037
vn 0.0154 -0.8330 -0.5531
vn 0.0410 -0.9794 -0.1978
vn -0.0021 0.7650 -0.6440
vn 0.0289 0.9608 -0.2757
vn 0.0305 0.9713 -0.2360
vn 0.0004 0.7999 -0.6001
vn 0.0503 0.9783 0.2010
vn 0.0466 0.7856 0.6170
vn 0.0473 0.8098 0.5848
vn 0.0503 0.9787 0.1993
vn -0.0058 -0.1755 0.9845
vn 0.0097 -0.5088 0.8608
vn 0.0108 -0.5531 0.8330
vn -0.0058 -0.1979 0.9802
vn 0.2020 0.9784 0.0445
vn 0.1977 0.9792 0.0446
vn 0.5530 0.8329 0.0205
vn 0.5943 0.8041 0.0184
vn 0.8641 0.5031 -0.0175
vn 0.8330 0.5531 -0.0153
vn 0.9795 0.1978 -0.0373
vn 0.9842 0.1728 -0.0374
vn 0.9842 -0.1728 -0.0374
vn 0.9795 -0.1978 -0.0373
vn 0.8330 -0.5531 -0.0153
vn 0.8641 -0.5031 -0.0175
vn 0.5943 -0.8041 0.0184
vn 0.5530 -0.8329 0.0205
vn 0.1977 -0.9792 0.0446
vn 0.2020 -0.9784 0.0445
vn -0.2425 -0.9691 0.0451
vn -0.1977 -0.9792 0.0455
vn -0.5530 -0.8328 0.0271
vn -0.6074 -0.7940 0.0250
vn -0.8620 -0.5068 -0.0002
vn -0.8331 -0.5532 0.0016
vn -0.9801 -0.1979 -0.0172
vn -0.9840 -0.1774 -0.0175
vn -0.9840 0.1774 -0.0175
vn -0.9801 0.1979 -0.0172
vn -0.8331 0.5532 0.0016
vn -0.8620 0.5068 -0.0002
vn -0.6074 0.7940 0.0250
vn -0.5530 0.8328 0.0271
vn -0.1977 0.9792 0.0455
vn -0.2425 0.9691 0.0451
vn -0.0277 -0.4739 -0.8801
vn -0.0396 -0.1628 -0.9859
vn -0.0395 -0.1791 -0.9830
vn -0.0263 -0.5121 -0.8585
vn 0.0466 -0.7856 0.6170
vn 0.0503 -0.9783 0.2010
vn 0.0503 -0.9787 0.1993
vn 0.0473 -0.8098 0.5848
vn -0.0359 0.1788 -0.9832
vn -0.0169 0.5102 -0.8599
vn -0.0148 0.5531 -0.8330
vn -0.0355 0.1978 -0.9796
vn 0.0097 0.5088 0.8608
vn -0.0058 0.1755 0.9845
vn -0.0058 0.1979 0.9802
vn 0.0108 0.5531 0.8330
vn 0.0289 -0.9608 -0.2757
vn -0.0021 -0.7650 -0.6440
vn 0.0004 -0.7999 -0.6001
vn 0.0305 -0.9713 -0.2360
vn 0.0124 0.7971 -0.6037
vn 0.0396 0.9700 -0.2400
vn 0.0410 0.9794 -0.1978
vn 0.0154 0.8330 -0.5531
vn 0.0498 0.9786 0.1995
vn 0.0358 0.8076 0.5886
vn 0.0366 0.8325 0.5528
vn 0.0498 0.9790 0.1977
vn 0.0009 -0.1569 0.9876
vn 0.0235 -0.4722 0.8812
vn 0.0250 -0.5118 0.8587
vn 0.0014 -0.1761 0.9844
usemtl Material.001
s off
f 27/1/1 25/2/1 1/3/1
f 2/4/2 65/5/2 27/1/2
f 26/6/3 28/7/3 65/5/3
f 65/5/4 3/8/4 25/2/4
f 28/7/5 29/9/5 3/8/5
f 4/10/6 66/11/6 28/7/6
f 30/12/7 31/13/7 66/11/7
f 66/11/8 5/14/8 29/9/8
f 5/14/9 67/15/9 32/16/9
f 31/13/10 33/17/10 67/15/10
f 67/15/11 8/18/11 34/19/11
f 32/16/12 34/19/12 7/20/12
f 7/20/13 68/21/13 35/22/13
f 34/19/14 36/23/14 68/21/14
f 68/21/15 10/24/15 37/25/15
f 35/22/16 37/25/16 9/26/16
f 9/26/17 69/27/17 38/28/17
f 37/25/18 39/29/18 69/27/18
f 69/27/19 12/30/19 40/31/19
f 38/28/20 40/31/20 11/32/20
f 11/32/21 70/33/21 41/34/21
f 40/31/22 42/35/22 70/33/22
f 70/33/23 14/36/23 43/37/23
f 41/34/24 43/37/24 13/38/24
f 4/39/25 71/40/25 30/41/25
f 2/42/25 71/40/25 26/43/25
f 16/44/25 71/40/25 48/45/25
f 14/46/25 71/40/25 45/47/25
f 12/48/25 71/40/25 42/49/25
f 10/50/25 71/40/25 39/51/25
f 8/52/25 71/40/25 36/53/25
f 6/54/25 71/40/25 33/55/25
f 43/37/26 44/56/26 13/38/26
f 14/36/27 72/57/27 43/37/27
f 45/58/28 46/59/28 72/57/28
f 72/57/29 15/60/29 44/56/29
f 46/59/30 47/61/30 15/60/30
f 16/62/31 73/63/31 46/59/31
f 48/64/32 27/65/32 73/63/32
f 73/63/33 1/66/33 47/61/33
f 11/32/34 74/67/34 58/68/34
f 41/34/35 57/69/35 74/67/35
f 74/67/36 23/70/36 54/71/36
f 58/68/37 54/71/37 22/72/37
f 17/73/38 75/74/38 56/75/38
f 18/76/38 75/74/38 49/77/38
f 19/78/38 75/74/38 50/79/38
f 20/80/38 75/74/38 51/81/38
f 21/82/38 75/74/38 52/83/38
f 22/84/38 75/74/38 53/85/38
f 23/86/38 75/74/38 54/87/38
f 24/88/38 75/74/38 55/89/38
f 7/20/39 76/90/39 60/91/39
f 35/22/40 59/92/40 76/90/40
f 76/90/41 21/93/41 52/94/41
f 60/91/42 52/94/42 20/95/42
f 44/56/43 57/69/43 13/38/43
f 15/60/44 77/96/44 44/56/44
f 61/97/45 55/98/45 77/96/45
f 77/96/46 23/70/46 57/69/46
f 29/9/47 63/99/47 3/8/47
f 5/14/48 78/100/48 29/9/48
f 62/101/49 50/102/49 78/100/49
f 78/100/50 18/103/50 63/99/50
f 9/26/51 79/104/51 59/92/51
f 38/28/52 58/68/52 79/104/52
f 79/104/53 22/72/53 53/105/53
f 59/92/54 53/105/54 21/93/54
f 47/61/55 61/97/55 15/60/55
f 1/66/56 80/106/56 47/61/56
f 64/107/57 56/108/57 80/106/57
f 80/106/58 24/109/58 61/97/58
f 25/2/59 64/110/59 1/3/59
f 3/8/60 81/111/60 25/2/60
f 63/99/61 49/112/61 81/111/61
f 81/111/62 17/113/62 64/110/62
f 5/14/63 82/114/63 62/101/63
f 32/16/64 60/91/64 82/114/64
f 82/114/65 20/95/65 51/115/65
f 62/101/66 51/115/66 19/116/66
f 27/1/67 65/5/67 25/2/67
f 2/4/68 26/6/68 65/5/68
f 26/6/69 4/10/69 28/7/69
f 65/5/70 28/7/70 3/8/70
f 28/7/71 66/11/71 29/9/71
f 4/10/72 30/12/72 66/11/72
f 30/12/73 6/117/73 31/13/73
f 66/11/74 31/13/74 5/14/74
f 5/14/75 31/13/75 67/15/75
f 31/13/76 6/117/76 33/17/76
f 67/15/77 33/17/77 8/18/77
f 32/16/78 67/15/78 34/19/78
f 7/20/79 34/19/79 68/21/79
f 34/19/80 8/18/80 36/23/80
f 68/21/81 36/23/81 10/24/81
f 35/22/82 68/21/82 37/25/82
f 9/26/83 37/25/83 69/27/83
f 37/25/84 10/24/84 39/29/84
f 69/27/85 39/29/85 12/30/85
f 38/28/86 69/27/86 40/31/86
f 11/32/87 40/31/87 70/33/87
f 40/31/88 12/30/88 42/35/88
f 70/33/89 42/35/89 14/36/89
f 41/34/90 70/33/90 43/37/90
f 4/39/25 26/43/25 71/40/25
f 2/42/25 48/45/25 71/40/25
f 16/44/25 45/47/25 71/40/25
f 14/46/25 42/49/25 71/40/25
f 12/48/25 39/51/25 71/40/25
f 10/50/25 36/53/25 71/40/25
f 8/52/25 33/55/25 71/40/25
f 6/54/25 30/41/25 71/40/25
f 43/37/91 72/57/91 44/56/91
f 14/36/92 45/58/92 72/57/92
f 45/58/93 16/62/93 46/59/93
f 72/57/94 46/59/94 15/60/94
f 46/59/95 73/63/95 47/61/95
f 16/62/96 48/64/96 73/63/96
f 48/64/97 2/118/97 27/65/97
f 73/63/98 27/65/98 1/66/98
f 11/32/99 41/34/99 74/67/99
f 41/34/100 13/38/100 57/69/100
f 74/67/101 57/69/101 23/70/101
f 58/68/102 74/67/102 54/71/102
f 17/73/38 49/77/38 75/74/38
f 18/76/38 50/79/38 75/74/38
f 19/78/38 51/81/38 75/74/38
f 20/80/38 52/83/38 75/74/38
f 21/82/38 53/85/38 75/74/38
f 22/84/38 54/87/38 75/74/38
f 23/86/38 55/89/38 75/74/38
f 24/88/38 56/75/38 75/74/38
f 7/20/103 35/22/103 76/90/103
f 35/22/104 9/26/104 59/92/104
f 76/90/105 59/92/105 21/93/105
f 60/91/106 76/90/106 52/94/106
f 44/56/107 77/96/107 57/69/107
f 15/60/108 61/97/108 77/96/108
f 61/97/109 24/109/109 55/98/109
f 77/96/110 55/98/110 23/70/110
f 29/9/111 78/100/111 63/99/111
f 5/14/112 62/101/112 78/100/112
f 62/101/113 19/116/113 50/102/113
f 78/100/114 50/102/114 18/103/114
f 9/26/115 38/28/115 79/104/115
f 38/28/116 11/32/116 58/68/116
f 79/104/117 58/68/117 22/72/117
f 59/92/118 79/104/118 53/105/118
f 47/61/119 80/106/119 61/97/119
f 1/66/120 64/107/120 80/106/120
f 64/107/121 17/119/121 56/108/121
f 80/106/122 56/108/122 24/109/122
f 25/2/123 81/111/123 64/110/123
f 3/8/124 63/99/124 81/111/124
f 63/99/125 18/103/125 49/112/125
f 81/111/126 49/112/126 17/113/126
f 5/14/127 32/16/127 82/114/127
f 32/16/128 7/20/128 60/91/128
f 82/114/129 60/91/129 20/95/129
f 62/101/130 82/114/130 51/115/130
