# Blender v2.80 (sub 75) OBJ File: 'Laptop.blend'
# www.blender.org
mtllib assets/Laptop.mtl
o Cube_Cube.001
v -0.500000 0.002910 0.500000
v -0.462498 0.066101 0.462498
v -0.500000 0.002910 -0.500000
v -0.462498 0.066101 -0.462498
v 0.500000 0.002910 0.500000
v 0.462498 0.066101 0.462498
v 0.500000 0.002910 -0.500000
v 0.462498 0.066101 -0.462498
v -0.500000 0.052838 0.500000
v -0.500000 0.052838 -0.500000
v 0.500000 0.052838 -0.500000
v 0.500000 0.052838 0.500000
v -0.500000 0.034611 -0.503491
v -0.462498 0.087191 -0.452160
v -0.500000 1.000537 -0.762310
v -0.462498 0.980668 -0.691566
v 0.500000 0.034611 -0.503491
v 0.462498 0.087191 -0.452160
v 0.500000 1.000537 -0.762310
v 0.462498 0.980668 -0.691566
v -0.500000 0.047533 -0.455265
v -0.500000 1.013459 -0.714084
v 0.500000 1.013459 -0.714084
v 0.500000 0.047533 -0.455265
v -0.462498 0.083977 -0.464152
v -0.462498 0.977454 -0.703558
v 0.462498 0.977454 -0.703558
v 0.462498 0.083977 -0.464152
v -0.500000 0.015811 0.500000
v -0.500000 0.015811 -0.500000
v 0.500000 0.015811 -0.500000
v 0.500000 0.015811 0.500000
v -0.500000 0.033447 0.500000
v -0.500000 0.033447 -0.500000
v 0.500000 0.033447 -0.500000
v 0.500000 0.033447 0.500000
v -0.365600 0.002910 -0.500000
v -0.365600 0.052838 -0.500000
v -0.365600 0.002910 0.500000
v -0.365600 0.052838 0.500000
v -0.338179 0.066101 -0.462498
v -0.338179 0.066101 0.462498
v -0.365600 0.015811 0.500000
v -0.365600 0.015811 -0.500000
v -0.365600 0.033447 0.500000
v -0.365600 0.033447 -0.500000
v -0.318285 0.052838 -0.500000
v -0.318285 0.002910 0.500000
v -0.294412 0.066101 -0.462498
v -0.318285 0.015811 -0.500000
v -0.318285 0.033447 -0.500000
v -0.318285 0.002910 -0.500000
v -0.318285 0.052838 0.500000
v -0.294412 0.066101 0.462498
v -0.318285 0.015811 0.500000
v -0.318285 0.033447 0.500000
v -0.236791 0.052838 -0.500000
v -0.236791 0.002910 0.500000
v -0.219030 0.066101 -0.462498
v -0.236791 0.015811 -0.500000
v -0.236791 0.033447 -0.500000
v -0.236791 0.002910 -0.500000
v -0.236791 0.052838 0.500000
v -0.219030 0.066101 0.462498
v -0.236791 0.015811 0.500000
v -0.236791 0.033447 0.500000
v -0.198876 0.052838 -0.500000
v -0.198876 0.002910 0.500000
v -0.183960 0.066101 -0.462498
v -0.198876 0.015811 -0.500000
v -0.198876 0.033447 -0.500000
v -0.198876 0.002910 -0.500000
v -0.198876 0.052838 0.500000
v -0.183960 0.066101 0.462498
v -0.198876 0.015811 0.500000
v -0.198876 0.033447 0.500000
v 0.353215 0.052838 -0.500000
v 0.353215 0.002910 0.500000
v 0.326722 0.066101 -0.462498
v 0.353215 0.015811 -0.500000
v 0.353215 0.033447 -0.500000
v 0.353215 0.002910 -0.500000
v 0.353215 0.052838 0.500000
v 0.326722 0.066101 0.462498
v 0.353215 0.015811 0.500000
v 0.353215 0.033447 0.500000
v 0.299333 0.002910 -0.500000
v 0.299333 0.052838 0.500000
v 0.275307 0.066101 0.462498
v 0.299333 0.015811 0.500000
v 0.299333 0.033447 0.500000
v 0.299333 0.052838 -0.500000
v 0.299333 0.002910 0.500000
v 0.275307 0.066101 -0.462498
v 0.299333 0.015811 -0.500000
v 0.299333 0.033447 -0.500000
v -0.500000 0.002910 -0.255533
v -0.500000 0.052838 -0.255533
v 0.500000 0.002910 -0.255533
v 0.500000 0.052838 -0.255533
v -0.462498 0.066101 -0.236367
v 0.462498 0.066101 -0.236367
v 0.500000 0.015811 -0.255533
v -0.500000 0.015811 -0.255533
v 0.500000 0.033447 -0.255533
v -0.500000 0.033447 -0.255533
v -0.338179 0.066101 -0.236367
v -0.365600 0.002910 -0.255533
v -0.294412 0.066101 -0.236367
v -0.318285 0.002910 -0.255533
v -0.219030 0.066101 -0.236367
v -0.236791 0.002910 -0.255533
v -0.183960 0.066101 -0.236367
v -0.198876 0.002910 -0.255533
v 0.326722 0.066101 -0.236367
v 0.353215 0.002910 -0.255533
v 0.299333 0.002910 -0.255533
v 0.275307 0.066101 -0.236367
v -0.500000 0.002910 -0.216051
v 0.500000 0.052838 -0.216051
v 0.462498 0.066101 -0.199846
v 0.500000 0.015811 -0.216051
v 0.500000 0.033447 -0.216051
v -0.338179 0.066101 -0.199846
v -0.365600 0.002910 -0.216051
v -0.294412 0.066101 -0.199846
v -0.318285 0.002910 -0.216051
v -0.219030 0.066101 -0.199846
v -0.236791 0.002910 -0.216051
v -0.183960 0.066101 -0.199846
v -0.198876 0.002910 -0.216051
v 0.326722 0.066101 -0.199846
v 0.353215 0.002910 -0.216051
v 0.299333 0.002910 -0.216051
v 0.275307 0.066101 -0.199846
v -0.500000 0.052838 -0.216051
v 0.500000 0.002910 -0.216051
v -0.462498 0.066101 -0.199846
v -0.500000 0.015811 -0.216051
v -0.500000 0.033447 -0.216051
v -0.500000 0.002910 -0.181415
v 0.500000 0.052838 -0.181415
v 0.462498 0.066101 -0.167808
v 0.500000 0.015811 -0.181415
v 0.500000 0.033447 -0.181415
v -0.338179 0.066101 -0.167808
v -0.365600 0.002910 -0.181415
v -0.294412 0.066101 -0.167808
v -0.318285 0.002910 -0.181415
v -0.219030 0.066101 -0.167808
v -0.236791 0.002910 -0.181415
v -0.183960 0.066101 -0.167808
v -0.198876 0.002910 -0.181415
v 0.326722 0.066101 -0.167808
v 0.353215 0.002910 -0.181415
v 0.299333 0.002910 -0.181415
v 0.275307 0.066101 -0.167808
v -0.500000 0.052838 -0.181415
v 0.500000 0.002910 -0.181415
v -0.462498 0.066101 -0.167808
v -0.500000 0.015811 -0.181415
v -0.500000 0.033447 -0.181415
v -0.500000 0.002910 -0.142570
v 0.500000 0.052838 -0.142570
v 0.462498 0.066101 -0.131877
v 0.500000 0.015811 -0.142570
v 0.500000 0.033447 -0.142570
v -0.338179 0.066101 -0.131877
v -0.365600 0.002910 -0.142570
v -0.294412 0.066101 -0.131877
v -0.318285 0.002910 -0.142570
v -0.219030 0.066101 -0.131877
v -0.236791 0.002910 -0.142570
v -0.183960 0.066101 -0.131877
v -0.198876 0.002910 -0.142570
v 0.326722 0.066101 -0.131877
v 0.353215 0.002910 -0.142570
v 0.299333 0.002910 -0.142570
v 0.275307 0.066101 -0.131877
v -0.500000 0.052838 -0.142570
v 0.500000 0.002910 -0.142570
v -0.462498 0.066101 -0.131877
v -0.500000 0.015811 -0.142570
v -0.500000 0.033447 -0.142570
v -0.500000 0.002910 -0.115723
v 0.500000 0.052838 -0.115723
v 0.462498 0.066101 -0.107043
v 0.500000 0.015811 -0.115723
v 0.500000 0.033447 -0.115723
v -0.338179 0.066101 -0.107043
v -0.365600 0.002910 -0.115723
v -0.294412 0.066101 -0.107043
v -0.318285 0.002910 -0.115723
v -0.219030 0.066101 -0.107043
v -0.236791 0.002910 -0.115723
v -0.183960 0.066101 -0.107043
v -0.198876 0.002910 -0.115723
v 0.326722 0.066101 -0.107043
v 0.353215 0.002910 -0.115723
v 0.299333 0.002910 -0.115723
v 0.275307 0.066101 -0.107043
v -0.500000 0.052838 -0.115723
v 0.500000 0.002910 -0.115723
v -0.462498 0.066101 -0.107043
v -0.500000 0.015811 -0.115723
v -0.500000 0.033447 -0.115723
v -0.500000 0.002910 -0.077413
v 0.500000 0.052838 -0.077413
v 0.462498 0.066101 -0.071607
v 0.500000 0.015811 -0.077413
v 0.500000 0.033447 -0.077413
v -0.338179 0.066101 -0.071607
v -0.365600 0.002910 -0.077413
v -0.294412 0.066101 -0.071607
v -0.318285 0.002910 -0.077413
v -0.219030 0.066101 -0.071607
v -0.236791 0.002910 -0.077413
v -0.183960 0.066101 -0.071607
v -0.198876 0.002910 -0.077413
v 0.326722 0.066101 -0.071607
v 0.353215 0.002910 -0.077413
v 0.299333 0.002910 -0.077413
v 0.275307 0.066101 -0.071607
v -0.500000 0.052838 -0.077413
v 0.500000 0.002910 -0.077413
v -0.462498 0.066101 -0.071607
v -0.500000 0.015811 -0.077413
v -0.500000 0.033447 -0.077413
v -0.482761 0.015811 -0.216051
v -0.482761 0.015811 -0.255533
v -0.482761 0.033447 -0.216051
v -0.482761 0.033447 -0.255533
v -0.482761 0.015811 -0.142570
v -0.482761 0.015811 -0.181415
v -0.482761 0.033447 -0.142570
v -0.482761 0.033447 -0.181415
v -0.482761 0.015811 -0.077413
v -0.482761 0.015811 -0.115723
v -0.482761 0.033447 -0.077413
v -0.482761 0.033447 -0.115723
v -0.365600 0.033447 -0.478703
v -0.365600 0.015811 -0.478703
v -0.318285 0.015811 -0.478703
v -0.318285 0.033447 -0.478703
v -0.236791 0.033447 -0.478703
v -0.236791 0.015811 -0.478703
v -0.198876 0.015811 -0.478703
v -0.198876 0.033447 -0.478703
v 0.299333 0.015811 -0.478703
v 0.353215 0.015811 -0.478703
v 0.299333 0.033447 -0.478703
v 0.353215 0.033447 -0.478703
vt 0.515410 0.188883
vt 0.625000 0.188883
vt 0.625000 0.250000
vt 0.515410 0.250000
vt 0.515410 0.463304
vt 0.625000 0.463304
vt 0.625000 0.500000
vt 0.515410 0.500000
vt 0.515410 0.605647
vt 0.625000 0.605647
vt 0.625000 0.750000
vt 0.515410 0.750000
vt 0.515410 0.966400
vt 0.625000 0.966400
vt 0.625000 1.000000
vt 0.515410 1.000000
vt 0.338304 0.605647
vt 0.375000 0.605647
vt 0.375000 0.750000
vt 0.338304 0.750000
vt 0.834545 0.607098
vt 0.865624 0.607098
vt 0.865624 0.740624
vt 0.834545 0.740624
vt 0.865624 0.565908
vt 0.865624 0.509376
vt 0.875000 0.500000
vt 0.875000 0.561117
vt 0.668319 0.509376
vt 0.634376 0.509376
vt 0.661696 0.500000
vt 0.634376 0.607098
vt 0.634376 0.740624
vt 0.875000 0.750000
vt 0.841400 0.750000
vt 0.375000 0.000000
vt 0.625000 0.000000
vt 0.625000 0.250000
vt 0.375000 0.250000
vt 0.625000 0.500000
vt 0.375000 0.500000
vt 0.625000 0.750000
vt 0.375000 0.750000
vt 0.625000 1.000000
vt 0.375000 1.000000
vt 0.125000 0.500000
vt 0.125000 0.750000
vt 0.634376 0.740624
vt 0.634376 0.509376
vt 0.634376 0.509376
vt 0.634376 0.740624
vt 0.865624 0.740624
vt 0.865624 0.509376
vt 0.875000 0.500000
vt 0.875000 0.750000
vt 0.865624 0.509376
vt 0.865624 0.740624
vt 0.375000 0.966400
vt 0.439599 0.966400
vt 0.439599 1.000000
vt 0.375000 1.000000
vt 0.439599 0.605647
vt 0.439599 0.750000
vt 0.375000 0.463304
vt 0.439599 0.463304
vt 0.439599 0.500000
vt 0.375000 0.500000
vt 0.375000 0.188883
vt 0.439599 0.188883
vt 0.439599 0.250000
vt 0.375000 0.250000
vt 0.515410 0.283600
vt 0.439599 0.283600
vt 0.439599 0.954571
vt 0.515410 0.954571
vt 0.375000 0.283600
vt 0.375000 0.954571
vt 0.823603 0.740625
vt 0.829571 0.750000
vt 0.834545 0.509376
vt 0.841400 0.500000
vt 0.823603 0.607098
vt 0.125000 0.605647
vt 0.158600 0.605647
vt 0.158600 0.750000
vt 0.125000 0.750000
vt 0.625000 0.954571
vt 0.625000 0.283600
vt 0.515410 0.934198
vt 0.625000 0.934198
vt 0.804758 0.607098
vt 0.804758 0.740624
vt 0.809198 0.750000
vt 0.375000 0.934198
vt 0.439599 0.934198
vt 0.439599 0.315802
vt 0.515410 0.315802
vt 0.515410 0.315802
vt 0.439599 0.315802
vt 0.439599 0.295429
vt 0.375000 0.295429
vt 0.823603 0.509376
vt 0.829571 0.500000
vt 0.170429 0.605647
vt 0.170429 0.750000
vt 0.625000 0.295429
vt 0.515410 0.295429
vt 0.439599 0.924719
vt 0.515410 0.924719
vt 0.375000 0.924719
vt 0.795990 0.740624
vt 0.799719 0.750000
vt 0.795990 0.607098
vt 0.625000 0.924719
vt 0.375000 0.315802
vt 0.804758 0.509376
vt 0.809198 0.500000
vt 0.190802 0.605647
vt 0.190802 0.750000
vt 0.625000 0.315802
vt 0.515410 0.794916
vt 0.625000 0.794916
vt 0.675923 0.607098
vt 0.675923 0.740624
vt 0.669916 0.750000
vt 0.375000 0.794916
vt 0.439599 0.794916
vt 0.515410 0.295429
vt 0.515410 0.283600
vt 0.439599 0.325281
vt 0.375000 0.325281
vt 0.795990 0.509376
vt 0.799719 0.500000
vt 0.200281 0.605647
vt 0.200281 0.750000
vt 0.625000 0.325281
vt 0.515410 0.325281
vt 0.515410 0.786696
vt 0.439599 0.786696
vt 0.375000 0.786696
vt 0.668320 0.740624
vt 0.661696 0.750000
vt 0.668319 0.607098
vt 0.625000 0.786696
vt 0.439599 0.325281
vt 0.515410 0.325281
vt 0.375000 0.455084
vt 0.439599 0.455084
vt 0.675923 0.509376
vt 0.669916 0.500000
vt 0.330084 0.605647
vt 0.330084 0.750000
vt 0.515410 0.455084
vt 0.625000 0.455084
vt 0.675923 0.565908
vt 0.668319 0.565908
vt 0.200281 0.500000
vt 0.330084 0.500000
vt 0.330084 0.561117
vt 0.200281 0.561117
vt 0.338304 0.500000
vt 0.338304 0.561117
vt 0.634376 0.565908
vt 0.190802 0.500000
vt 0.190802 0.561117
vt 0.795990 0.565908
vt 0.170429 0.500000
vt 0.170429 0.561117
vt 0.804758 0.565908
vt 0.158600 0.500000
vt 0.158600 0.561117
vt 0.823603 0.565908
vt 0.125000 0.500000
vt 0.125000 0.561117
vt 0.834545 0.565908
vt 0.439599 0.188883
vt 0.515410 0.188883
vt 0.515410 0.561117
vt 0.439599 0.561117
vt 0.375000 0.179013
vt 0.439599 0.179013
vt 0.375000 0.561117
vt 0.625000 0.561117
vt 0.865624 0.575039
vt 0.875000 0.570987
vt 0.515410 0.179013
vt 0.625000 0.179013
vt 0.515410 0.170354
vt 0.625000 0.170354
vt 0.865624 0.583048
vt 0.875000 0.579646
vt 0.375000 0.170354
vt 0.439599 0.170354
vt 0.675923 0.575039
vt 0.668319 0.575039
vt 0.330084 0.570987
vt 0.200281 0.570987
vt 0.338304 0.570987
vt 0.634376 0.575039
vt 0.190802 0.570987
vt 0.795990 0.575039
vt 0.170429 0.570987
vt 0.804758 0.575039
vt 0.158600 0.570987
vt 0.823603 0.575039
vt 0.125000 0.570987
vt 0.834545 0.575039
vt 0.515410 0.570987
vt 0.439599 0.570987
vt 0.375000 0.570987
vt 0.625000 0.570987
vt 0.515410 0.144353
vt 0.515410 0.153931
vt 0.515410 0.153931
vt 0.515410 0.144353
vt 0.375000 0.160642
vt 0.439599 0.160643
vt 0.865624 0.592031
vt 0.875000 0.589357
vt 0.515410 0.160642
vt 0.625000 0.160642
vt 0.675923 0.583048
vt 0.668319 0.583048
vt 0.330084 0.579646
vt 0.200281 0.579646
vt 0.338304 0.579646
vt 0.634376 0.583048
vt 0.190802 0.579646
vt 0.795990 0.583048
vt 0.170429 0.579646
vt 0.804758 0.583048
vt 0.158600 0.579646
vt 0.823603 0.583048
vt 0.125000 0.579646
vt 0.834545 0.583048
vt 0.515410 0.579646
vt 0.439599 0.579646
vt 0.375000 0.579646
vt 0.625000 0.579646
vt 0.625000 0.153931
vt 0.865624 0.598239
vt 0.875000 0.596069
vt 0.375000 0.153931
vt 0.439599 0.153931
vt 0.675923 0.592031
vt 0.668319 0.592031
vt 0.330084 0.589358
vt 0.200281 0.589358
vt 0.338304 0.589357
vt 0.634376 0.592031
vt 0.190802 0.589358
vt 0.795990 0.592031
vt 0.170429 0.589358
vt 0.804758 0.592031
vt 0.158600 0.589358
vt 0.823603 0.592031
vt 0.125000 0.589358
vt 0.834545 0.592031
vt 0.515410 0.589358
vt 0.439599 0.589358
vt 0.375000 0.589357
vt 0.625000 0.589358
vt 0.439599 0.160643
vt 0.439599 0.170354
vt 0.375000 0.144353
vt 0.439599 0.144353
vt 0.875000 0.605647
vt 0.625000 0.144353
vt 0.675923 0.598239
vt 0.668319 0.598239
vt 0.330084 0.596069
vt 0.200281 0.596069
vt 0.338304 0.596069
vt 0.634376 0.598239
vt 0.190802 0.596069
vt 0.795990 0.598239
vt 0.170429 0.596069
vt 0.804758 0.598239
vt 0.158600 0.596069
vt 0.823603 0.598239
vt 0.125000 0.596069
vt 0.834545 0.598239
vt 0.515410 0.596069
vt 0.439599 0.596069
vt 0.375000 0.596069
vt 0.625000 0.596069
vt 0.515410 0.000000
vt 0.625000 0.000000
vt 0.375000 0.000000
vt 0.439599 0.000000
vt 0.439599 0.179013
vt 0.515410 0.179013
vt 0.515410 0.160642
vt 0.515410 0.170354
vt 0.439599 0.144353
vt 0.439599 0.153931
vt 0.439599 0.283600
vt 0.439599 0.295429
vt 0.439599 0.455084
vt 0.515410 0.455084
vt 0.515410 0.463304
vt 0.439599 0.463304
vn -1.0000 0.0000 0.0000
vn 0.0000 0.0000 -1.0000
vn 1.0000 0.0000 0.0000
vn 0.0000 0.0000 1.0000
vn 0.0000 -1.0000 0.0000
vn 0.0000 1.0000 0.0000
vn -0.3334 0.9428 0.0000
vn 0.0000 0.9428 -0.3334
vn 0.3334 0.9428 0.0000
vn 0.0000 0.9428 0.3334
vn 0.0000 0.9659 -0.2588
vn 0.0000 -0.9659 0.2588
vn 0.0000 -0.2588 -0.9659
vn -0.3334 0.2440 0.9107
vn 0.0000 0.5661 0.8244
vn 0.3334 0.2440 0.9107
vn 0.0000 -0.0781 0.9969
vn 0.0000 0.2588 0.9659
usemtl Material.001
s off
f 106/1/1 98/2/1 10/3/1 34/4/1
f 81/5/2 77/6/2 11/7/2 35/8/2
f 211/9/3 208/10/3 12/11/3 36/12/3
f 45/13/4 40/14/4 9/15/4 33/16/4
f 221/17/5 225/18/5 5/19/5 78/20/5
f 212/21/6 226/22/6 2/23/6 42/24/6
f 101/25/7 4/26/7 10/27/7 98/28/7
f 79/29/8 8/30/8 11/7/8 77/31/8
f 209/32/9 6/33/9 12/11/9 208/10/9
f 42/24/10 2/23/10 9/34/10 40/35/10
f 13/36/1 21/37/1 22/38/1 15/39/1
f 15/39/11 22/38/11 23/40/11 19/41/11
f 19/41/3 23/40/3 24/42/3 17/43/3
f 17/43/12 24/42/12 21/44/12 13/45/12
f 15/46/13 19/41/13 17/43/13 13/47/13
f 18/48/1 20/49/1 27/50/1 28/51/1
f 14/52/14 16/53/14 22/54/14 21/55/14
f 16/53/15 20/49/15 23/40/15 22/54/15
f 20/49/16 18/48/16 24/42/16 23/40/16
f 18/48/17 14/52/17 21/55/17 24/42/17
f 27/50/18 26/56/18 25/57/18 28/51/18
f 16/53/3 14/52/3 25/57/3 26/56/3
f 14/52/11 18/48/11 28/51/11 25/57/11
f 20/49/12 16/53/12 26/56/12 27/50/12
f 39/58/4 43/59/4 29/60/4 1/61/4
f 225/18/3 210/62/3 32/63/3 5/19/3
f 82/64/2 80/65/2 31/66/2 7/67/2
f 97/68/1 104/69/1 30/70/1 3/71/1
f 43/59/4 45/13/4 33/16/4 29/60/4
f 210/62/3 211/9/3 36/12/3 32/63/3
f 80/65/2 81/5/2 35/8/2 31/66/2
f 104/69/1 106/1/1 34/4/1 30/70/1
f 30/70/2 34/4/2 46/72/2 44/73/2
f 55/74/4 56/75/4 45/13/4 43/59/4
f 3/71/2 30/70/2 44/73/2 37/76/2
f 48/77/4 55/74/4 43/59/4 39/58/4
f 54/78/10 42/24/10 40/35/10 53/79/10
f 4/26/8 41/80/8 38/81/8 10/27/8
f 214/82/6 212/21/6 42/24/6 54/78/6
f 207/83/5 213/84/5 39/85/5 1/86/5
f 56/75/4 53/87/4 40/14/4 45/13/4
f 34/4/2 10/3/2 38/88/2 46/72/2
f 66/89/4 63/90/4 53/87/4 56/75/4
f 216/91/6 214/82/6 54/78/6 64/92/6
f 64/92/10 54/78/10 53/79/10 63/93/10
f 58/94/4 65/95/4 55/74/4 48/77/4
f 65/95/4 66/89/4 56/75/4 55/74/4
f 60/96/3 61/97/3 245/98/3 246/99/3
f 37/76/2 44/73/2 50/100/2 52/101/2
f 41/80/8 49/102/8 47/103/8 38/81/8
f 213/84/5 215/104/5 48/105/5 39/85/5
f 46/72/2 38/88/2 47/106/2 51/107/2
f 75/108/4 76/109/4 66/89/4 65/95/4
f 68/110/4 75/108/4 65/95/4 58/94/4
f 74/111/10 64/92/10 63/93/10 73/112/10
f 218/113/6 216/91/6 64/92/6 74/111/6
f 76/109/4 73/114/4 63/90/4 66/89/4
f 50/100/2 51/107/2 61/97/2 60/96/2
f 52/101/2 50/100/2 60/96/2 62/115/2
f 49/102/8 59/116/8 57/117/8 47/103/8
f 215/104/5 217/118/5 58/119/5 48/105/5
f 51/107/2 47/106/2 57/120/2 61/97/2
f 91/121/4 88/122/4 73/114/4 76/109/4
f 223/123/6 218/113/6 74/111/6 89/124/6
f 89/124/10 74/111/10 73/112/10 88/125/10
f 93/126/4 90/127/4 75/108/4 68/110/4
f 90/127/4 91/121/4 76/109/4 75/108/4
f 46/72/5 51/107/5 244/128/5 241/129/5
f 62/115/2 60/96/2 70/130/2 72/131/2
f 59/116/8 69/132/8 67/133/8 57/117/8
f 217/118/5 219/134/5 68/135/5 58/119/5
f 61/97/2 57/120/2 67/136/2 71/137/2
f 32/63/4 36/12/4 86/138/4 85/139/4
f 5/19/4 32/63/4 85/139/4 78/140/4
f 6/33/10 84/141/10 83/142/10 12/11/10
f 209/32/6 220/143/6 84/141/6 6/33/6
f 36/12/4 12/11/4 83/144/4 86/138/4
f 71/137/1 70/130/1 247/145/1 248/146/1
f 87/147/2 95/148/2 80/65/2 82/64/2
f 94/149/8 79/29/8 77/31/8 92/150/8
f 222/151/5 221/17/5 78/20/5 93/152/5
f 96/153/2 92/154/2 77/6/2 81/5/2
f 71/137/2 67/136/2 92/154/2 96/153/2
f 219/134/5 222/151/5 93/152/5 68/135/5
f 69/132/8 94/149/8 92/150/8 67/133/8
f 72/131/2 70/130/2 95/148/2 87/147/2
f 70/130/2 71/137/2 96/153/2 95/148/2
f 85/139/4 86/138/4 91/121/4 90/127/4
f 78/140/4 85/139/4 90/127/4 93/126/4
f 84/141/10 89/124/10 88/125/10 83/142/10
f 220/143/6 223/123/6 89/124/6 84/141/6
f 86/138/4 83/144/4 88/122/4 91/121/4
f 79/29/6 94/149/6 118/155/6 115/156/6
f 72/157/5 87/158/5 117/159/5 114/160/5
f 87/158/5 82/161/5 116/162/5 117/159/5
f 8/30/6 79/29/6 115/156/6 102/163/6
f 62/164/5 72/157/5 114/160/5 112/165/5
f 94/149/6 69/132/6 113/166/6 118/155/6
f 52/167/5 62/164/5 112/165/5 110/168/5
f 69/132/6 59/116/6 111/169/6 113/166/6
f 37/170/5 52/167/5 110/168/5 108/171/5
f 59/116/6 49/102/6 109/172/6 111/169/6
f 3/173/5 37/170/5 108/171/5 97/174/5
f 49/102/6 41/80/6 107/175/6 109/172/6
f 106/1/4 104/69/4 230/176/4 232/177/4
f 31/66/3 35/8/3 105/178/3 103/179/3
f 119/180/1 139/181/1 104/69/1 97/68/1
f 7/67/3 31/66/3 103/179/3 99/182/3
f 8/30/9 102/163/9 100/183/9 11/7/9
f 138/184/7 101/25/7 98/28/7 136/185/7
f 41/80/6 4/26/6 101/25/6 107/175/6
f 82/161/5 7/67/5 99/182/5 116/162/5
f 35/8/3 11/7/3 100/183/3 105/178/3
f 140/186/1 136/187/1 98/2/1 106/1/1
f 162/188/1 158/189/1 136/187/1 140/186/1
f 160/190/7 138/184/7 136/185/7 158/191/7
f 141/192/1 161/193/1 139/181/1 119/180/1
f 161/193/1 162/188/1 140/186/1 139/181/1
f 115/156/6 118/155/6 135/194/6 132/195/6
f 114/160/5 117/159/5 134/196/5 131/197/5
f 117/159/5 116/162/5 133/198/5 134/196/5
f 102/163/6 115/156/6 132/195/6 121/199/6
f 112/165/5 114/160/5 131/197/5 129/200/5
f 118/155/6 113/166/6 130/201/6 135/194/6
f 110/168/5 112/165/5 129/200/5 127/202/5
f 113/166/6 111/169/6 128/203/6 130/201/6
f 108/171/5 110/168/5 127/202/5 125/204/5
f 111/169/6 109/172/6 126/205/6 128/203/6
f 97/174/5 108/171/5 125/204/5 119/206/5
f 109/172/6 107/175/6 124/207/6 126/205/6
f 103/179/3 105/178/3 123/208/3 122/209/3
f 99/182/3 103/179/3 122/209/3 137/210/3
f 102/163/9 121/199/9 120/211/9 100/183/9
f 107/175/6 101/25/6 138/184/6 124/207/6
f 116/162/5 99/182/5 137/210/5 133/198/5
f 105/178/3 100/183/3 120/211/3 123/208/3
f 228/212/5 206/213/5 240/214/5 239/215/5
f 163/216/1 183/217/1 161/193/1 141/192/1
f 182/218/7 160/190/7 158/191/7 180/219/7
f 184/220/1 180/221/1 158/189/1 162/188/1
f 132/195/6 135/194/6 157/222/6 154/223/6
f 131/197/5 134/196/5 156/224/5 153/225/5
f 134/196/5 133/198/5 155/226/5 156/224/5
f 121/199/6 132/195/6 154/223/6 143/227/6
f 129/200/5 131/197/5 153/225/5 151/228/5
f 135/194/6 130/201/6 152/229/6 157/222/6
f 127/202/5 129/200/5 151/228/5 149/230/5
f 130/201/6 128/203/6 150/231/6 152/229/6
f 125/204/5 127/202/5 149/230/5 147/232/5
f 128/203/6 126/205/6 148/233/6 150/231/6
f 119/206/5 125/204/5 147/232/5 141/234/5
f 126/205/6 124/207/6 146/235/6 148/233/6
f 122/209/3 123/208/3 145/236/3 144/237/3
f 137/210/3 122/209/3 144/237/3 159/238/3
f 121/199/9 143/227/9 142/239/9 120/211/9
f 124/207/6 138/184/6 160/190/6 146/235/6
f 133/198/5 137/210/5 159/238/5 155/226/5
f 123/208/3 120/211/3 142/239/3 145/236/3
f 206/213/1 202/240/1 180/221/1 184/220/1
f 204/241/7 182/218/7 180/219/7 202/242/7
f 185/243/1 205/244/1 183/217/1 163/216/1
f 205/244/1 206/213/1 184/220/1 183/217/1
f 154/223/6 157/222/6 179/245/6 176/246/6
f 153/225/5 156/224/5 178/247/5 175/248/5
f 156/224/5 155/226/5 177/249/5 178/247/5
f 143/227/6 154/223/6 176/246/6 165/250/6
f 151/228/5 153/225/5 175/248/5 173/251/5
f 157/222/6 152/229/6 174/252/6 179/245/6
f 149/230/5 151/228/5 173/251/5 171/253/5
f 152/229/6 150/231/6 172/254/6 174/252/6
f 147/232/5 149/230/5 171/253/5 169/255/5
f 150/231/6 148/233/6 170/256/6 172/254/6
f 141/234/5 147/232/5 169/255/5 163/257/5
f 148/233/6 146/235/6 168/258/6 170/256/6
f 144/237/3 145/236/3 167/259/3 166/260/3
f 159/238/3 144/237/3 166/260/3 181/261/3
f 143/227/9 165/250/9 164/262/9 142/239/9
f 146/235/6 160/190/6 182/218/6 168/258/6
f 155/226/5 159/238/5 181/261/5 177/249/5
f 145/236/3 142/239/3 164/262/3 167/259/3
f 161/193/6 183/217/6 233/263/6 234/264/6
f 207/265/1 227/266/1 205/244/1 185/243/1
f 226/22/7 204/241/7 202/242/7 224/267/7
f 228/212/1 224/268/1 202/240/1 206/213/1
f 176/246/6 179/245/6 201/269/6 198/270/6
f 175/248/5 178/247/5 200/271/5 197/272/5
f 178/247/5 177/249/5 199/273/5 200/271/5
f 165/250/6 176/246/6 198/270/6 187/274/6
f 173/251/5 175/248/5 197/272/5 195/275/5
f 179/245/6 174/252/6 196/276/6 201/269/6
f 171/253/5 173/251/5 195/275/5 193/277/5
f 174/252/6 172/254/6 194/278/6 196/276/6
f 169/255/5 171/253/5 193/277/5 191/279/5
f 172/254/6 170/256/6 192/280/6 194/278/6
f 163/257/5 169/255/5 191/279/5 185/281/5
f 170/256/6 168/258/6 190/282/6 192/280/6
f 166/260/3 167/259/3 189/283/3 188/284/3
f 181/261/3 166/260/3 188/284/3 203/285/3
f 165/250/9 187/274/9 186/286/9 164/262/9
f 168/258/6 182/218/6 204/241/6 190/282/6
f 177/249/5 181/261/5 203/285/5 199/273/5
f 167/259/3 164/262/3 186/286/3 189/283/3
f 33/287/1 9/288/1 224/268/1 228/212/1
f 2/23/7 226/22/7 224/267/7 9/34/7
f 1/289/1 29/290/1 227/266/1 207/265/1
f 29/290/1 33/287/1 228/212/1 227/266/1
f 198/270/6 201/269/6 223/123/6 220/143/6
f 197/272/5 200/271/5 222/151/5 219/134/5
f 200/271/5 199/273/5 221/17/5 222/151/5
f 187/274/6 198/270/6 220/143/6 209/32/6
f 195/275/5 197/272/5 219/134/5 217/118/5
f 201/269/6 196/276/6 218/113/6 223/123/6
f 193/277/5 195/275/5 217/118/5 215/104/5
f 196/276/6 194/278/6 216/91/6 218/113/6
f 191/279/5 193/277/5 215/104/5 213/84/5
f 194/278/6 192/280/6 214/82/6 216/91/6
f 185/281/5 191/279/5 213/84/5 207/83/5
f 192/280/6 190/282/6 212/21/6 214/82/6
f 188/284/3 189/283/3 211/9/3 210/62/3
f 203/285/3 188/284/3 210/62/3 225/18/3
f 187/274/9 209/32/9 208/10/9 186/286/9
f 190/282/6 204/241/6 226/22/6 212/21/6
f 199/273/5 203/285/5 225/18/5 221/17/5
f 189/283/3 186/286/3 208/10/3 211/9/3
f 229/291/1 231/292/1 232/177/1 230/176/1
f 233/263/1 235/293/1 236/294/1 234/264/1
f 237/295/1 239/215/1 240/214/1 238/296/1
f 227/266/2 228/212/2 239/215/2 237/295/2
f 184/220/5 162/188/5 236/294/5 235/293/5
f 104/69/6 139/181/6 229/291/6 230/176/6
f 183/217/2 184/220/2 235/293/2 233/263/2
f 206/213/4 205/244/4 238/296/4 240/214/4
f 139/181/2 140/186/2 231/292/2 229/291/2
f 162/188/4 161/193/4 234/264/4 236/294/4
f 140/186/5 106/1/5 232/177/5 231/292/5
f 205/244/6 227/266/6 237/295/6 238/296/6
f 242/297/2 241/129/2 244/128/2 243/298/2
f 246/99/2 245/98/2 248/146/2 247/145/2
f 249/299/2 251/300/2 252/301/2 250/302/2
f 51/107/1 50/100/1 243/298/1 244/128/1
f 80/65/6 95/148/6 249/299/6 250/302/6
f 95/148/3 96/153/3 251/300/3 249/299/3
f 70/130/6 60/96/6 246/99/6 247/145/6
f 96/153/5 81/5/5 252/301/5 251/300/5
f 50/100/6 44/73/6 242/297/6 243/298/6
f 61/97/5 71/137/5 248/146/5 245/98/5
f 81/5/1 80/65/1 250/302/1 252/301/1
f 44/73/3 46/72/3 241/129/3 242/297/3
